<svg viewBox="575 389.0624 380 82.8752" width="5000" height="1090.463157894737" xmlns="http://www.w3.org/2000/svg" xmlns:xlink="http://www.w3.org/1999/xlink" preserveAspectRatio="none"><defs></defs><style>.companyName {fill:#4D4D4D;fill-opacity:1;}.icon1 {fill:#FF834F;fill-opacity:1;}.icon2 {fill:#FF4949;fill-opacity:1;}.icon3 {fill:#FFAE78;fill-opacity:1;}.icon3-str {stroke:#FFAE78;stroke-opacity:1;}.shapeStroke-str {stroke:#313131;stroke-opacity:1;}</style><g opacity="1" transform="rotate(0 575 397.7861)">
<svg width="65.4278" height="65.4278" x="575" y="397.7861" version="1.1" preserveAspectRatio="none" viewBox="10 10 80 80">
  <g transform="matrix(1 0 0 1 0 0)" class="icon1"><path d="M83.333,10H16.667C13.001,10,10,13.001,10,16.667v66.666C10,86.999,13.001,90,16.667,90h66.666  C86.999,90,90,86.999,90,83.333V16.667C90,13.001,86.999,10,83.333,10z M80,66.667L50,83.333l-16.667-9.258V41.179L50,31.921  l16.667,9.258v17.643L50,68.079l-3.333-1.852V49.023L50,47.175l3.333,1.849v9.577L60,54.899v-9.799l-10-5.557l-10,5.557v25.049  l10,5.557l23.333-12.962V37.256L50,24.294L26.667,37.256v33.115L20,66.667V33.333l30-16.666l30,16.666V66.667z"></path></g>
</svg>
</g><g opacity="1" transform="rotate(0 668.0529 408.6907)">
<svg width="286.9471" height="43.6185" x="668.0529" y="408.6907" version="1.1" preserveAspectRatio="none" viewBox="1.28 -31.48 260.24 39.56">
  <g transform="matrix(1 0 0 1 0 0)" class="companyName"><path id="id-D6z1nYkh12" d="M13.28 0.32Q9.84 0.32 7.10-1.10Q4.36-2.52 2.82-5.04Q1.28-7.56 1.28-10.76L1.28-10.76Q1.28-13.96 2.82-16.48Q4.36-19 7.10-20.42Q9.84-21.84 13.28-21.84L13.28-21.84Q16.68-21.84 19.22-20.42Q21.76-19 22.92-16.36L22.92-16.36L18.08-13.76Q16.40-16.72 13.24-16.72L13.24-16.72Q10.80-16.72 9.20-15.12Q7.60-13.52 7.60-10.76L7.60-10.76Q7.60-8 9.20-6.40Q10.80-4.80 13.24-4.80L13.24-4.80Q16.44-4.80 18.08-7.76L18.08-7.76L22.92-5.12Q21.76-2.56 19.22-1.12Q16.68 0.32 13.28 0.32L13.28 0.32Z M35.20-21.84Q40.20-21.84 42.88-19.46Q45.56-17.08 45.56-12.28L45.56-12.28L45.56 0L39.72 0L39.72-2.68Q37.96 0.32 33.16 0.32L33.16 0.32Q30.68 0.32 28.86-0.52Q27.04-1.36 26.08-2.84Q25.12-4.32 25.12-6.20L25.12-6.20Q25.12-9.20 27.38-10.92Q29.64-12.64 34.36-12.64L34.36-12.64L39.32-12.64Q39.32-14.68 38.08-15.78Q36.84-16.88 34.36-16.88L34.36-16.88Q32.64-16.88 30.98-16.34Q29.32-15.80 28.16-14.88L28.16-14.88L25.92-19.24Q27.68-20.48 30.14-21.16Q32.60-21.84 35.20-21.84L35.20-21.84ZM34.72-3.88Q36.32-3.88 37.56-4.62Q38.80-5.36 39.32-6.80L39.32-6.80L39.32-9L35.04-9Q31.20-9 31.20-6.48L31.20-6.48Q31.20-5.28 32.14-4.58Q33.08-3.88 34.72-3.88L34.72-3.88Z M67.12-29.68L73.36-29.68L73.36 0L67.40 0L67.40-2.48Q65.08 0.32 60.68 0.32L60.68 0.32Q57.64 0.32 55.18-1.04Q52.72-2.40 51.32-4.92Q49.92-7.44 49.92-10.76L49.92-10.76Q49.92-14.08 51.32-16.60Q52.72-19.12 55.18-20.48Q57.64-21.84 60.68-21.84L60.68-21.84Q64.80-21.84 67.12-19.24L67.12-19.24L67.12-29.68ZM61.76-4.80Q64.12-4.80 65.68-6.42Q67.24-8.04 67.24-10.76L67.24-10.76Q67.24-13.48 65.68-15.10Q64.12-16.72 61.76-16.72L61.76-16.72Q59.36-16.72 57.80-15.10Q56.24-13.48 56.24-10.76L56.24-10.76Q56.24-8.04 57.80-6.42Q59.36-4.80 61.76-4.80L61.76-4.80Z M78.32-8.76L78.32-13.76L89.64-13.76L89.64-8.76L78.32-8.76Z M107.28-21.84Q110.28-21.84 112.74-20.46Q115.20-19.08 116.60-16.58Q118-14.08 118-10.76L118-10.76Q118-7.44 116.60-4.94Q115.20-2.44 112.74-1.06Q110.28 0.32 107.28 0.32L107.28 0.32Q103.16 0.32 100.80-2.28L100.80-2.28L100.80 7.76L94.56 7.76L94.56-21.52L100.52-21.52L100.52-19.04Q102.84-21.84 107.28-21.84L107.28-21.84ZM106.20-4.80Q108.60-4.80 110.14-6.42Q111.68-8.04 111.68-10.76L111.68-10.76Q111.68-13.48 110.14-15.10Q108.60-16.72 106.20-16.72L106.20-16.72Q103.80-16.72 102.26-15.10Q100.72-13.48 100.72-10.76L100.72-10.76Q100.72-8.04 102.26-6.42Q103.80-4.80 106.20-4.80L106.20-4.80Z M128.12-18.68Q129.24-20.24 131.14-21.04Q133.04-21.84 135.52-21.84L135.52-21.84L135.52-16.08Q134.48-16.16 134.12-16.16L134.12-16.16Q131.44-16.16 129.92-14.66Q128.40-13.16 128.40-10.16L128.40-10.16L128.40 0L122.16 0L122.16-21.52L128.12-21.52L128.12-18.68Z M149.28 0.32Q145.88 0.32 143.18-1.10Q140.48-2.52 138.96-5.04Q137.44-7.56 137.44-10.76L137.44-10.76Q137.44-13.96 138.96-16.48Q140.48-19 143.18-20.42Q145.88-21.84 149.28-21.84L149.28-21.84Q152.68-21.84 155.36-20.42Q158.04-19 159.56-16.48Q161.08-13.96 161.08-10.76L161.08-10.76Q161.08-7.56 159.56-5.04Q158.04-2.52 155.36-1.10Q152.68 0.32 149.28 0.32L149.28 0.32ZM149.28-4.80Q151.68-4.80 153.22-6.42Q154.76-8.04 154.76-10.76L154.76-10.76Q154.76-13.48 153.22-15.10Q151.68-16.72 149.28-16.72L149.28-16.72Q146.88-16.72 145.32-15.10Q143.76-13.48 143.76-10.76L143.76-10.76Q143.76-8.04 145.32-6.42Q146.88-4.80 149.28-4.80L149.28-4.80Z M163.64 8.08Q160.36 8.08 158.64 6.88L158.64 6.88L160.32 2.36Q161.40 3.12 162.96 3.12L162.96 3.12Q164.16 3.12 164.84 2.34Q165.52 1.56 165.52 0L165.52 0L165.52-21.52L171.76-21.52L171.76-0.04Q171.76 3.72 169.62 5.90Q167.48 8.08 163.64 8.08L163.64 8.08ZM168.64-24.52Q166.92-24.52 165.84-25.52Q164.76-26.52 164.76-28L164.76-28Q164.76-29.48 165.84-30.48Q166.92-31.48 168.64-31.48L168.64-31.48Q170.36-31.48 171.44-30.52Q172.52-29.56 172.52-28.12L172.52-28.12Q172.52-26.56 171.44-25.54Q170.36-24.52 168.64-24.52L168.64-24.52Z M198.60-10.68Q198.60-10.56 198.48-9L198.48-9L182.20-9Q182.64-7 184.28-5.84Q185.92-4.68 188.36-4.68L188.36-4.68Q190.04-4.68 191.34-5.18Q192.64-5.68 193.76-6.76L193.76-6.76L197.08-3.16Q194.04 0.32 188.20 0.32L188.20 0.32Q184.56 0.32 181.76-1.10Q178.96-2.52 177.44-5.04Q175.92-7.56 175.92-10.76L175.92-10.76Q175.92-13.92 177.42-16.46Q178.92-19 181.54-20.42Q184.16-21.84 187.40-21.84L187.40-21.84Q190.56-21.84 193.12-20.48Q195.68-19.12 197.14-16.58Q198.60-14.04 198.60-10.68L198.60-10.68ZM187.44-17.12Q185.32-17.12 183.88-15.92Q182.44-14.72 182.12-12.64L182.12-12.64L192.72-12.64Q192.40-14.68 190.96-15.90Q189.52-17.12 187.44-17.12L187.44-17.12Z M213.16 0.32Q209.72 0.32 206.98-1.10Q204.24-2.52 202.70-5.04Q201.16-7.56 201.16-10.76L201.16-10.76Q201.16-13.96 202.70-16.48Q204.24-19 206.98-20.42Q209.72-21.84 213.16-21.84L213.16-21.84Q216.56-21.84 219.10-20.42Q221.64-19 222.80-16.36L222.80-16.36L217.96-13.76Q216.28-16.72 213.12-16.72L213.12-16.72Q210.68-16.72 209.08-15.12Q207.48-13.52 207.48-10.76L207.48-10.76Q207.48-8 209.08-6.40Q210.68-4.80 213.12-4.80L213.12-4.80Q216.32-4.80 217.96-7.76L217.96-7.76L222.80-5.12Q221.64-2.56 219.10-1.12Q216.56 0.32 213.16 0.32L213.16 0.32Z M238.92-5.44L240.60-1.04Q239.68-0.36 238.34-0.02Q237.00 0.32 235.52 0.32L235.52 0.32Q231.68 0.32 229.58-1.64Q227.48-3.60 227.48-7.40L227.48-7.40L227.48-16.24L224.16-16.24L224.16-21.04L227.48-21.04L227.48-26.28L233.72-26.28L233.72-21.04L239.08-21.04L239.08-16.24L233.72-16.24L233.72-7.48Q233.72-6.12 234.42-5.38Q235.12-4.64 236.40-4.64L236.40-4.64Q237.88-4.64 238.92-5.44L238.92-5.44Z M251.36 0.32Q248.68 0.32 246.12-0.34Q243.56-1 242.04-2L242.04-2L244.12-6.48Q245.56-5.56 247.60-4.98Q249.64-4.40 251.60-4.40L251.60-4.40Q255.56-4.40 255.56-6.36L255.56-6.36Q255.56-7.28 254.48-7.68Q253.40-8.08 251.16-8.36L251.16-8.36Q248.52-8.76 246.80-9.28Q245.08-9.80 243.82-11.12Q242.56-12.44 242.56-14.88L242.56-14.88Q242.56-16.92 243.74-18.50Q244.92-20.08 247.18-20.96Q249.44-21.84 252.52-21.84L252.52-21.84Q254.80-21.84 257.06-21.34Q259.32-20.84 260.80-19.96L260.80-19.96L258.72-15.52Q255.88-17.12 252.52-17.12L252.52-17.12Q250.52-17.12 249.52-16.56Q248.52-16 248.52-15.12L248.52-15.12Q248.52-14.12 249.60-13.72Q250.68-13.32 253.04-12.96L253.04-12.96Q255.68-12.52 257.36-12.02Q259.04-11.52 260.28-10.20Q261.52-8.88 261.52-6.52L261.52-6.52Q261.52-4.52 260.32-2.96Q259.12-1.40 256.82-0.54Q254.52 0.32 251.36 0.32L251.36 0.32Z"/></g>
</svg>
</g><g opacity="1" transform="rotate(0 653.5134 389.0624)">
<svg width="2.9079" height="82.8752" x="653.5134" y="389.0624" version="1.1" preserveAspectRatio="none" viewBox="0 0 2.9079 82.8752">
  <rect x="0" y="0" width="2.9079" height="82.8752" class="companyName shapeStroke-str" style="stroke-width:0;" rx="0px" ry="0px" />
</svg>
</g></svg>